<svg xmlns="http://www.w3.org/2000/svg" width="760" height="520" viewBox="0 0 760 520">
<defs><style>text { font-family: 'JetBrains Mono', 'Fira Code', 'SF Mono', Menlo, monospace; font-size: 12px; } .dim { fill: #6e7681; } .bold { font-weight: bold; } .green { fill: #3fb950; } .white { fill: #e6edf3; } .gray { fill: #8b949e; } .head { fill: #58a6ff; font-weight: bold; }</style></defs>
<rect width="760" height="520" rx="10" fill="#0d1117"/>
<rect width="760" height="36" rx="10" fill="#161b22"/>
<rect x="0" y="26" width="760" height="10" fill="#161b22"/>
<circle cx="20" cy="18" r="6" fill="#ff5f57"/>
<circle cx="40" cy="18" r="6" fill="#febc2e"/>
<circle cx="60" cy="18" r="6" fill="#28c840"/>
<text x="330" y="22" class="dim" text-anchor="middle">cyclops connectors</text>

<text x="20" y="60" class="white">$ cyclops connectors</text>

<text x="270" y="85" class="white bold">CYCLOPS &#8212; 32 connectors</text>

<line x1="20" y1="95" x2="740" y2="95" stroke="#30363d" stroke-width="1"/>
<text x="30" y="112" class="head">Connector</text>
<text x="200" y="112" class="head">Type</text>
<text x="420" y="112" class="head">Accepts</text>
<text x="600" y="112" class="head">Native</text>
<line x1="20" y1="120" x2="740" y2="120" stroke="#30363d" stroke-width="1"/>

<text x="30" y="137" class="white bold">GitHub</text><text x="200" y="137" class="gray">code_platform</text><text x="420" y="137" class="gray">username</text><text x="620" y="137" class="green">&#10003;</text>
<text x="30" y="157" class="white bold">DNS-Native</text><text x="200" y="157" class="gray">dns_enum</text><text x="420" y="157" class="gray">domain</text><text x="620" y="157" class="green">&#10003;</text>
<text x="30" y="177" class="white bold">WHOIS-Native</text><text x="200" y="177" class="gray">domain_registration</text><text x="420" y="177" class="gray">domain</text><text x="620" y="177" class="green">&#10003;</text>
<text x="30" y="197" class="white bold">crt.sh</text><text x="200" y="197" class="gray">certificate_transparency</text><text x="420" y="197" class="gray">domain</text><text x="620" y="197" class="green">&#10003;</text>
<text x="30" y="217" class="white bold">HaveIBeenPwned</text><text x="200" y="217" class="gray">breach_lookup</text><text x="420" y="217" class="gray">email</text><text x="620" y="217" class="green">&#10003;</text>
<text x="30" y="237" class="white bold">VirusTotal</text><text x="200" y="237" class="gray">threat_intelligence</text><text x="420" y="237" class="gray">domain, ip, url</text><text x="620" y="237" class="green">&#10003;</text>
<text x="30" y="257" class="white bold">SecurityTrails</text><text x="200" y="257" class="gray">dns_intelligence</text><text x="420" y="257" class="gray">domain, ip</text><text x="620" y="257" class="green">&#10003;</text>
<text x="30" y="277" class="white bold">AlienVault OTX</text><text x="200" y="277" class="gray">threat_intelligence</text><text x="420" y="277" class="gray">domain, ip, url</text><text x="620" y="277" class="green">&#10003;</text>
<text x="30" y="297" class="white bold">AbuseIPDB</text><text x="200" y="297" class="gray">ip_reputation</text><text x="420" y="297" class="gray">ip</text><text x="620" y="297" class="green">&#10003;</text>
<text x="30" y="317" class="white bold">URLScan</text><text x="200" y="317" class="gray">url_intelligence</text><text x="420" y="317" class="gray">domain, url</text><text x="620" y="317" class="green">&#10003;</text>
<line x1="20" y1="327" x2="740" y2="327" stroke="#30363d" stroke-width="1"/>
<text x="30" y="347" class="white bold">Sherlock</text><text x="200" y="347" class="gray">username_enum</text><text x="420" y="347" class="gray">username</text><text x="620" y="347" class="dim">-</text>
<text x="30" y="367" class="white bold">Maigret</text><text x="200" y="367" class="gray">username_deep</text><text x="420" y="367" class="gray">username</text><text x="620" y="367" class="dim">-</text>
<text x="30" y="387" class="white bold">theHarvester</text><text x="200" y="387" class="gray">domain_recon</text><text x="420" y="387" class="gray">domain</text><text x="620" y="387" class="dim">-</text>
<text x="30" y="407" class="white bold">Amass</text><text x="200" y="407" class="gray">subdomain_enum</text><text x="420" y="407" class="gray">domain</text><text x="620" y="407" class="dim">-</text>
<text x="30" y="427" class="white bold">Nmap</text><text x="200" y="427" class="gray">port_scan</text><text x="420" y="427" class="gray">ip, domain</text><text x="620" y="427" class="dim">-</text>
<line x1="20" y1="437" x2="740" y2="437" stroke="#30363d" stroke-width="1"/>

<text x="30" y="460" class="dim">16 native (built-in async) + 16 binary (auto-detected)</text>
<text x="30" y="480" class="dim">Binary connectors auto-skip if not installed</text>
<text x="30" y="500" class="gray">run</text><text x="60" y="500" class="white"> cyclops connectors</text><text x="250" y="500" class="gray"> to see all 32</text>
</svg>
