<svg xmlns="http://www.w3.org/2000/svg" width="760" height="420" viewBox="0 0 760 420">
<defs><style>text { font-family: 'JetBrains Mono', 'Fira Code', 'SF Mono', Menlo, monospace; font-size: 13px; } .dim { fill: #6e7681; } .bold { font-weight: bold; } .red { fill: #ff6b6b; } .green { fill: #3fb950; } .yellow { fill: #d29922; } .blue { fill: #58a6ff; } .white { fill: #e6edf3; } .gray { fill: #8b949e; }</style></defs>
<rect width="760" height="420" rx="10" fill="#0d1117"/>
<rect width="760" height="36" rx="10" fill="#161b22"/>
<rect x="0" y="26" width="760" height="10" fill="#161b22"/>
<circle cx="20" cy="18" r="6" fill="#ff5f57"/>
<circle cx="40" cy="18" r="6" fill="#febc2e"/>
<circle cx="60" cy="18" r="6" fill="#28c840"/>
<text x="330" y="22" class="dim" text-anchor="middle">cyclops example.com</text>

<text x="20" y="70" class="white">$ cyclops example.com</text>

<text x="20" y="105" class="red bold">CYCLOPS</text><text x="95" y="105" class="dim">v2.0.0</text>
<text x="20" y="125" class="white bold">Target:</text><text x="88" y="125" class="white"> example.com</text><text x="202" y="125" class="dim">(domain)</text>
<text x="20" y="145" class="white bold">Workflow:</text><text x="108" y="145" class="white"> domain_recon</text>

<text x="30" y="180" class="yellow">&#9670;</text><text x="50" y="180" class="white"> dns_enum</text><text x="150" y="180" class="green">..................</text><text x="290" y="180" class="green">&#10003;</text>
<text x="30" y="200" class="yellow">&#9670;</text><text x="50" y="200" class="white"> subdomain_enum</text><text x="196" y="200" class="green">............</text><text x="290" y="200" class="green">&#10003;</text>
<text x="30" y="220" class="yellow">&#9670;</text><text x="50" y="220" class="white"> service_scan</text><text x="180" y="220" class="green">..............</text><text x="290" y="220" class="green">&#10003;</text>
<text x="30" y="240" class="yellow">&#9670;</text><text x="50" y="240" class="white"> whois_intel</text><text x="174" y="240" class="green">...............</text><text x="290" y="240" class="green">&#10003;</text>
<text x="30" y="260" class="yellow">&#9670;</text><text x="50" y="260" class="white"> correlation</text><text x="290" y="260" class="green">&#10003;</text>
<text x="30" y="280" class="yellow">&#9670;</text><text x="50" y="280" class="white"> reporting</text><text x="290" y="280" class="green">&#10003;</text>

<text x="30" y="320" class="green bold">47</text><text x="55" y="320" class="white"> entities,</text><text x="145" y="320" class="blue bold">12</text><text x="165" y="320" class="white"> links</text>

<text x="30" y="350" class="dim">subdomain: 18    ip: 12    dns_record: 9</text>
<text x="30" y="370" class="dim">domain: 4    email: 3    certificate: 1</text>

<text x="30" y="400" class="dim">Report: /tmp/cyclops_runs/a3f1e2c4/report.json</text>
</svg>
